<svg height="512pt" viewBox="-96 0 512 512" width="512pt" xmlns="http://www.w3.org/2000/svg"><path d="m130 80v-40c0-16.570312 13.429688-30 30-30 16.558594 0 30 13.441406 30 30v60c0-16.570312 13.429688-30 30-30 16.558594 0 30 13.441406 30 30v136c0-22.738281 18.980469-41.050781 41.960938-39.949219 10.269531.488281 18.039062 9.667969 18.039062 19.949219v136c0 82.839844-67.160156 150-150 150s-150-67.160156-150-150v-212c0-16.570312 13.429688-30 30-30s30 13.429688 30 30v-60c0-16.570312 13.429688-30 30-30s30 13.429688 30 30zm0 0" fill="#fec9a5"/><path d="m140 402c0 5.519531 4.480469 10 10 10s10-4.480469 10-10-4.480469-10-10-10-10 4.480469-10 10zm0 0"/><path d="m160 0c-22.054688 0-40 17.945312-40 40v5.382812c-5.886719-3.417968-12.71875-5.382812-20-5.382812-22.054688 0-40 17.945312-40 40v25.382812c-5.886719-3.417968-12.71875-5.382812-20-5.382812-22.054688 0-40 17.945312-40 40v212c0 88.226562 71.777344 160 160 160s160-71.773438 160-160v-136c0-16.050781-12.105469-29.199219-27.5625-29.9375-11.847656-.574219-23.15625 2.941406-32.4375 9.945312v-96.007812c0-22.097656-17.898438-40-40-40-7.28125 0-14.113281 1.964844-20 5.382812v-25.382812c0-22.097656-17.898438-40-40-40zm60 80c11.046875 0 20 8.953125 20 20v212c-34.726562 0-66.453125 17.601562-84.871094 47.082031-2.925781 4.683594-1.5 10.851563 3.183594 13.777344 4.664062 2.914063 10.839844 1.523437 13.777344-3.179687 14.742187-23.59375 40.128906-37.679688 67.910156-37.679688 2.941406 0 5.941406.164062 8.910156.488281 5.914063.65625 11.089844-3.988281 11.089844-9.9375 0-11 0-78.398437 0-86.550781 0-16.992188 14.121094-30.777344 31.484375-29.960938 4.617187.21875 8.515625 4.78125 8.515625 9.960938v136c0 77.195312-62.804688 140-140 140s-140-62.804688-140-140v-212c0-11.027344 8.972656-20 20-20s20 8.972656 20 20v116c0 5.523438 4.476562 10 10 10s10-4.476562 10-10v-176c0-11.027344 8.972656-20 20-20s20 8.972656 20 20v176c0 5.523438 4.476562 10 10 10s10-4.476562 10-10v-216c0-11.027344 8.972656-20 20-20 11.046875 0 20 8.953125 20 20v216c0 5.523438 4.476562 10 10 10s10-4.476562 10-10v-156c0-11.027344 8.972656-20 20-20zm0 0"/></svg>